<?xml version="1.0" encoding="UTF-8" standalone="no"?>
<!-- Created with Inkscape (http://www.inkscape.org/) -->

<svg
   width="16"
   height="16"
   viewBox="0 0 16 16"
   version="1.1"
   id="svg1"
   xml:space="preserve"
   xmlns:inkscape="http://www.inkscape.org/namespaces/inkscape"
   xmlns:sodipodi="http://sodipodi.sourceforge.net/DTD/sodipodi-0.dtd"
   xmlns="http://www.w3.org/2000/svg"
   xmlns:svg="http://www.w3.org/2000/svg"><sodipodi:namedview
     id="namedview1"
     pagecolor="#ffffff"
     bordercolor="#000000"
     borderopacity="0.25"
     inkscape:showpageshadow="2"
     inkscape:pageopacity="0.0"
     inkscape:pagecheckerboard="0"
     inkscape:deskcolor="#d1d1d1"
     inkscape:document-units="px" /><defs
     id="defs1" /><g
     inkscape:label="图层 1"
     inkscape:groupmode="layer"
     id="layer1"><rect
       style="fill:#3287ff;fill-opacity:1"
       id="rect1"
       width="16"
       height="16"
       x="0"
       y="0"
       rx="3" /><g
       id="g1"
       transform="matrix(0.00872973,-0.00604939,0.00643789,0.00988846,0.31187386,6.2042359)"><path
         d="m 512,510.90942 c -22.3569,0 -40.89676,-17.99458 -40.89676,-40.89676 v -127.5979 c 0,-22.3569 17.99457,-40.89676 40.89676,-40.89676 22.3569,0 40.89676,17.99457 40.89676,40.89676 v 127.5979 c 0,22.90218 -18.53986,40.89676 -40.89676,40.89676 z"
         fill="#2c2c2c"
         p-id="21915"
         id="path1" /><path
         d="m 657.04718,131.93276 h -110.6939 v -18.53987 c 0,-38.715597 -21.26632,-74.704747 -55.07431,-93.789903 L 459.10685,1.6084121 c -16.3587,-9.2699326 -37.07973,-3.2717409 -46.34966,13.0869639 -9.26993,16.358705 -3.27174,37.079731 13.08697,46.349663 l 32.17211,17.994576 c 12.54168,7.088772 20.17574,20.175735 20.17574,34.353275 v 18.53987 H 366.95282 c -108.51274,0 -196.30446,88.33701 -196.30446,196.30446 v 298.819 c 0,181.58163 147.77363,329.90055 329.90055,329.90055 h 23.44747 c 181.58163,0 329.90055,-147.77363 329.90055,-329.90055 v -298.819 C 853.35164,220.26977 765.55992,131.93276 657.04718,131.93276 Z m 128.14319,495.66875 c 0,143.95661 -117.23738,261.73928 -261.73928,261.73928 h -23.44747 c -143.95661,0 -261.19399,-117.23738 -261.19399,-261.73928 V 328.23722 c 0,-70.88772 57.80076,-128.14319 128.14319,-128.14319 h 290.09436 c 70.88772,0 128.14319,57.80076 128.14319,128.14319 z"
         fill="#2c2c2c"
         p-id="21916"
         id="path2" /></g></g></svg>
